<svg id="Component_1_1" data-name="Component 1 – 1" xmlns="http://www.w3.org/2000/svg" width="2659.929" height="724.078" viewBox="0 0 2659.929 724.078">
  <g id="dumbbell" transform="translate(2297.89) rotate(45)">
    <g id="Group_1" data-name="Group 1">
      <path id="Path_1" data-name="Path 1" d="M439.793,129.812a15.712,15.712,0,0,1-10.913-4.395l-42.29-42.29a14.988,14.988,0,0,1-4.395-10.6,15.712,15.712,0,0,1,4.395-10.913L428.88,19.3a15.44,15.44,0,0,1,21.211,0L492.7,61.916a14.992,14.992,0,0,1,0,21.21l-42.3,42.29A14.983,14.983,0,0,1,439.793,129.812Z" fill="#c5c9f7"/>
      <rect id="Rectangle_1" data-name="Rectangle 1" width="89.999" height="249.218" transform="translate(199.708 375.929) rotate(-135)" fill="#c5c9f7"/>
      <path id="Path_2" data-name="Path 2" d="M72.584,497.021a14.948,14.948,0,0,1-10.6-4.395l-42.612-42.6a14.992,14.992,0,0,1,0-21.21l42.305-42.29a15,15,0,0,1,21.211,0l42.6,42.6a15,15,0,0,1,0,21.211l-42.29,42.29A14.959,14.959,0,0,1,72.584,497s.021Z" fill="#c5c9f7"/>
    </g>
    <g id="Group_2" data-name="Group 2">
      <path id="Path_3" data-name="Path 3" d="M61.979,492.626a14.992,14.992,0,0,0,21.21,0l42.29-42.29a15,15,0,0,0,0-21.211l-21.3-21.3L40.675,471.331Z" fill="#a8aff1"/>
      <path id="Path_4" data-name="Path 4" d="M428.88,125.417a15.714,15.714,0,0,0,10.913,4.395,14.986,14.986,0,0,0,10.605-4.395l42.3-42.29a14.992,14.992,0,0,0,0-21.21L471.4,40.61l-63.662,63.662Z" fill="#a8aff1"/>
      <rect id="Rectangle_2" data-name="Rectangle 2" width="249.218" height="44.994" transform="translate(167.895 344.115) rotate(-45)" fill="#a8aff1"/>
    </g>
    <path id="Path_5" data-name="Path 5" d="M471.393,231.525,280.475,40.607,312.3,8.787a30,30,0,0,1,42.426,0L503.213,157.279a30,30,0,0,1,0,42.426Z" fill="#1689fc"/>
    <path id="Path_6" data-name="Path 6" d="M428.967,295.165,216.835,83.033a15,15,0,0,1,0-21.213l21.213-21.213a30,30,0,0,1,42.426,0L471.393,231.526a30,30,0,0,1,0,42.426L450.18,295.165A15,15,0,0,1,428.967,295.165Z" fill="#17ace8"/>
    <path id="Path_7" data-name="Path 7" d="M40.607,280.475,231.526,471.394l-31.82,31.82a30,30,0,0,1-42.426,0L8.787,354.721a30,30,0,0,1,0-42.426Z" fill="#1689fc"/>
    <path id="Path_8" data-name="Path 8" d="M83.033,216.835,295.165,428.967a15,15,0,0,1,0,21.213l-21.213,21.213a30,30,0,0,1-42.426,0L40.607,280.475a30,30,0,0,1,0-42.426L61.82,216.836A15,15,0,0,1,83.033,216.835Z" fill="#17ace8"/>
    <g id="Group_3" data-name="Group 3">
      <path id="Path_9" data-name="Path 9" d="M157.28,503.214a30,30,0,0,0,42.426,0l31.82-31.82-95.455-95.457L83.038,428.97Z" fill="#136ef1"/>
      <path id="Path_10" data-name="Path 10" d="M375.939,136.069l95.455,95.457,31.82-31.82a30,30,0,0,0,0-42.426L428.972,83.036Z" fill="#136ef1"/>
    </g>
    <g id="Group_4" data-name="Group 4">
      <path id="Path_11" data-name="Path 11" d="M231.525,471.393a30,30,0,0,0,42.427,0l21.213-21.215a15,15,0,0,0,0-21.213L189.1,322.9,136.07,375.937Z" fill="#1689fc"/>
      <path id="Path_12" data-name="Path 12" d="M428.968,295.165a15,15,0,0,0,21.213,0l21.213-21.215a30,30,0,0,0,0-42.426l-95.455-95.457L322.906,189.1Z" fill="#1689fc"/>
    </g>
  </g>
  <text id="Gym" transform="translate(0 141.039)" fill="#136ef1" font-size="500" font-family="Bahnschrift"><tspan x="0" y="397">Gym</tspan></text>
  <text id="TEC" transform="translate(987.89 538.039)" fill="#fc5130" font-size="500" font-family="Bahnschrift"><tspan x="0" y="0">TEC</tspan></text>
</svg>
