<svg width="488" height="53" viewBox="0 0 488 53" fill="none" xmlns="http://www.w3.org/2000/svg">
<g filter="url(#filter0_d)">
<path d="M20.11 44.05C16.7967 44.05 13.9033 43.7467 11.43 43.14C9.00333 42.5333 6.97333 41.9267 5.34 41.32L4.01 32.78L8.63 32.36L9.61 37.61C11.01 38.0767 12.48 38.4733 14.02 38.8C15.6067 39.1267 17.6133 39.29 20.04 39.29C21.7667 39.29 23.3533 39.0567 24.8 38.59C26.2933 38.0767 27.4833 37.2833 28.37 36.21C29.3033 35.09 29.77 33.5967 29.77 31.73C29.77 29.8633 29.28 28.2533 28.3 26.9C27.32 25.5467 25.4533 24.6833 22.7 24.31L17.38 23.54C13.3667 22.9333 10.2867 21.6033 8.14 19.55C6.04 17.4967 4.99 14.93 4.99 11.85C4.99 8.67667 6.18 6.04 8.56 3.94C10.9867 1.79333 14.72 0.719998 19.76 0.719998C21.58 0.719998 23.19 0.789998 24.59 0.929999C26.0367 1.07 27.4133 1.30333 28.72 1.63C30.0733 1.95666 31.52 2.42333 33.06 3.03L34.25 11.71L29.63 12.2L28.72 6.6C27.7867 6.22667 26.5733 5.94667 25.08 5.76C23.5867 5.52667 21.8367 5.41 19.83 5.41C16.8433 5.41 14.4633 5.94667 12.69 7.02C10.9633 8.09333 10.1 9.65666 10.1 11.71C10.1 13.67 10.73 15.1867 11.99 16.26C13.2967 17.3333 15.0933 18.0333 17.38 18.36L23.75 19.34C27.7167 19.9467 30.6333 21.2767 32.5 23.33C34.4133 25.3833 35.37 27.9267 35.37 30.96C35.37 33.8533 34.67 36.28 33.27 38.24C31.87 40.1533 30.0033 41.6 27.67 42.58C25.3833 43.56 22.8633 44.05 20.11 44.05ZM41.4693 43V38.66H47.3493V18.57L40.6293 16.26L42.0993 11.92L51.3393 15.14C52.646 14.16 54.1393 13.39 55.8193 12.83C57.546 12.2233 59.2026 11.92 60.7893 11.92C65.5026 11.92 68.8626 13.1333 70.8693 15.56C72.036 14.4867 73.5526 13.6233 75.4193 12.97C77.286 12.27 79.0826 11.92 80.8093 11.92C85.056 11.92 88.1126 12.8533 89.9793 14.72C91.8926 16.5867 92.8493 19.5967 92.8493 23.75V38.66H98.7293V43H84.2393V38.66H87.3893V24.87C87.3893 21.79 86.8526 19.62 85.7793 18.36C84.7526 17.0533 82.9793 16.4 80.4593 16.4C78.966 16.4 77.496 16.6333 76.0493 17.1C74.6493 17.52 73.576 18.08 72.8293 18.78V38.66H75.9793V43H64.2193V38.66H67.3693V24.87C67.3693 21.79 66.8326 19.62 65.7593 18.36C64.7326 17.0533 62.9593 16.4 60.4393 16.4C58.946 16.4 57.476 16.6333 56.0293 17.1C54.6293 17.52 53.556 18.08 52.8093 18.78V38.66H55.9593V43H41.4693ZM124.756 40.97C121.723 43.0233 118.433 44.05 114.886 44.05C106.953 44.05 102.94 40.9467 102.846 34.74C102.753 28.6267 106.626 25.57 114.466 25.57L123.496 25.64C123.496 19.48 121.14 16.4 116.426 16.4C114.14 16.4 112.04 16.68 110.126 17.24L109.426 21.09L104.946 20.25L106.066 13.88C109.706 12.5733 113.09 11.92 116.216 11.92C124.71 11.92 128.956 16.4 128.956 25.36V37.54L135.606 39.71L134.206 44.19L124.756 40.97ZM114.676 29.98C110.523 29.98 108.446 31.5433 108.446 34.67C108.446 37.9367 110.686 39.57 115.166 39.57C118.386 39.57 121.163 38.6833 123.496 36.91V30.05L114.676 29.98ZM147.934 15.21C149.521 14.1367 151.318 13.32 153.324 12.76C155.331 12.2 157.338 11.92 159.344 11.92C161.024 11.92 161.911 11.9667 162.004 12.06L163.194 19.41L158.644 20.39L157.944 16.47C156.498 16.47 155.004 16.68 153.464 17.1C151.971 17.52 150.594 18.1033 149.334 18.85V38.66H156.194V43H137.994V38.66H143.874V18.64L137.154 16.33L138.624 11.99L147.934 15.21ZM181.532 44.05C179.852 44.05 178.242 43.7233 176.702 43.07C175.209 42.4167 173.996 41.25 173.062 39.57C172.129 37.89 171.662 35.5567 171.662 32.57V17.31H165.852V12.97H171.662V6.18L176.982 4.92V12.97H185.732V17.31H176.982V29.49C176.982 32.6167 177.286 35.1367 177.892 37.05C178.499 38.9633 179.829 39.92 181.882 39.92C183.329 39.92 184.962 39.5 186.782 38.66L187.832 42.58C186.852 42.9533 185.826 43.28 184.752 43.56C183.679 43.8867 182.606 44.05 181.532 44.05ZM192.332 1.77H209.132V6.6H204.652L204.582 19.48H224.742L224.812 6.6H220.332V1.77H237.062V6.6H230.412L230.202 38.17H236.922V43H220.262V38.17H224.742V24.31H204.582L204.512 38.17H208.992V43H192.262V38.17H198.982L199.052 6.6H192.332V1.77ZM257.089 11.92C260.216 11.92 262.922 12.5733 265.209 13.88C267.542 15.14 269.362 16.9833 270.669 19.41C271.976 21.79 272.629 24.66 272.629 28.02C272.629 33.0133 271.206 36.9333 268.359 39.78C265.512 42.6267 261.756 44.05 257.089 44.05C254.102 44.05 251.442 43.42 249.109 42.16C246.822 40.8533 245.026 39.01 243.719 36.63C242.459 34.2033 241.829 31.3333 241.829 28.02C241.829 24.66 242.459 21.79 243.719 19.41C245.026 16.9833 246.822 15.14 249.109 13.88C251.442 12.5733 254.102 11.92 257.089 11.92ZM257.159 16.4C253.939 16.4 251.512 17.4267 249.879 19.48C248.246 21.4867 247.429 24.3333 247.429 28.02C247.429 31.7067 248.246 34.5533 249.879 36.56C251.512 38.5667 253.939 39.57 257.159 39.57C260.472 39.57 262.946 38.5667 264.579 36.56C266.212 34.5533 267.029 31.7067 267.029 28.02C267.029 24.3333 266.212 21.4867 264.579 19.48C262.946 17.4267 260.472 16.4 257.159 16.4ZM277.036 43V38.66H282.916V18.57L276.196 16.26L277.666 11.92L286.906 15.14C288.212 14.16 289.706 13.39 291.386 12.83C293.112 12.2233 294.769 11.92 296.356 11.92C301.069 11.92 304.429 13.1333 306.436 15.56C307.602 14.4867 309.119 13.6233 310.986 12.97C312.852 12.27 314.649 11.92 316.376 11.92C320.622 11.92 323.679 12.8533 325.546 14.72C327.459 16.5867 328.416 19.5967 328.416 23.75V38.66H334.296V43H319.806V38.66H322.956V24.87C322.956 21.79 322.419 19.62 321.346 18.36C320.319 17.0533 318.546 16.4 316.026 16.4C314.532 16.4 313.062 16.6333 311.616 17.1C310.216 17.52 309.142 18.08 308.396 18.78V38.66H311.546V43H299.786V38.66H302.936V24.87C302.936 21.79 302.399 19.62 301.326 18.36C300.299 17.0533 298.526 16.4 296.006 16.4C294.512 16.4 293.042 16.6333 291.596 17.1C290.196 17.52 289.122 18.08 288.376 18.78V38.66H291.526V43H277.036ZM366.429 39.43C364.562 41.0167 362.649 42.1833 360.689 42.93C358.776 43.6767 356.582 44.05 354.109 44.05C349.162 44.05 345.219 42.65 342.279 39.85C339.386 37.0033 337.939 33.0367 337.939 27.95C337.939 24.73 338.569 21.93 339.829 19.55C341.089 17.1233 342.862 15.2567 345.149 13.95C347.482 12.5967 350.166 11.92 353.199 11.92C357.446 11.92 360.759 13.25 363.139 15.91C365.566 18.57 366.779 22.1167 366.779 26.55C366.779 26.97 366.756 27.4133 366.709 27.88C366.709 28.3 366.686 28.7433 366.639 29.21L343.329 29.35C343.469 31.73 344.029 33.6667 345.009 35.16C346.036 36.6533 347.319 37.75 348.859 38.45C350.446 39.15 352.126 39.5 353.899 39.5C357.866 39.5 361.202 38.38 363.909 36.14L366.429 39.43ZM361.389 24.94C361.342 22.3267 360.572 20.2267 359.079 18.64C357.632 17.0067 355.696 16.19 353.269 16.19C350.796 16.19 348.626 17.0067 346.759 18.64C344.892 20.2267 343.772 22.35 343.399 25.01L361.389 24.94ZM367.329 1.77H403.379V13.25H398.059V6.6H388.189L388.049 38.17H394.699V43H375.799V38.17H382.449L382.519 6.6H372.649V13.25H367.329V1.77ZM408.553 1.77H439.633L443.203 12.55L438.653 14.09L435.853 6.6H420.873V19.27H433.963V24.1H420.873L420.803 38.17H437.253L440.053 30.68L444.603 32.22L441.033 43H408.483V38.17H415.203L415.273 6.6H408.553V1.77ZM477.443 7.16C476.743 6.78666 475.716 6.41333 474.363 6.04C473.01 5.66667 471.306 5.48 469.253 5.48C464.726 5.48 461.273 6.99667 458.893 10.03C456.513 13.0167 455.323 17.1233 455.323 22.35C455.323 27.67 456.536 31.8233 458.963 34.81C461.436 37.7967 464.866 39.29 469.253 39.29C471.026 39.29 472.613 39.1267 474.013 38.8C475.413 38.4733 476.556 38.1467 477.443 37.82L478.773 32.22L483.533 33.34L481.783 41.46C481.783 41.46 481.27 41.6933 480.243 42.16C479.216 42.58 477.746 43 475.833 43.42C473.966 43.84 471.773 44.05 469.253 44.05C465.24 44.05 461.74 43.1633 458.753 41.39C455.813 39.6167 453.526 37.12 451.893 33.9C450.26 30.6333 449.42 26.7833 449.373 22.35C449.373 17.9633 450.166 14.16 451.753 10.94C453.386 7.67333 455.696 5.15333 458.683 3.38C461.67 1.56 465.17 0.673332 469.183 0.719998C472.263 0.719998 474.736 0.999998 476.603 1.56C478.516 2.07333 479.893 2.61 480.733 3.17C481.62 3.68333 482.063 3.96333 482.063 4.01L483.603 12.13L478.843 13.18L477.443 7.16Z" fill="black"/>
</g>
<defs>
<filter id="filter0_d" x="0.00999451" y="0.718246" width="487.593" height="51.4718" filterUnits="userSpaceOnUse" color-interpolation-filters="sRGB">
<feFlood flood-opacity="0" result="BackgroundImageFix"/>
<feColorMatrix in="SourceAlpha" type="matrix" values="0 0 0 0 0 0 0 0 0 0 0 0 0 0 0 0 0 0 127 0"/>
<feOffset dy="4"/>
<feGaussianBlur stdDeviation="2"/>
<feColorMatrix type="matrix" values="0 0 0 0 0 0 0 0 0 0 0 0 0 0 0 0 0 0 0.25 0"/>
<feBlend mode="normal" in2="BackgroundImageFix" result="effect1_dropShadow"/>
<feBlend mode="normal" in="SourceGraphic" in2="effect1_dropShadow" result="shape"/>
</filter>
</defs>
</svg>
